<?xml version="1.0" encoding="utf-8"?>
<!-- Generator: Adobe Illustrator 27.5.0, SVG Export Plug-In . SVG Version: 6.00 Build 0)  -->
<svg version="1.1" id="Layer_1" xmlns="http://www.w3.org/2000/svg" xmlns:xlink="http://www.w3.org/1999/xlink" x="0px" y="0px"
	 viewBox="0 0 2400 600" style="enable-background:new 0 0 2400 600;" xml:space="preserve">
<style type="text/css">
	
		.st0{clip-path:url(#SVGID_00000066504522864555336400000005402990532946522241_);fill:url(#SVGID_00000033348386786862338350000004420507769212136095_);stroke:#000000;stroke-miterlimit:10;}
	.st1{fill:#F15A29;stroke:#000000;stroke-miterlimit:10;}
	.st2{font-family:'Qojarun-Regular';}
	.st3{font-size:410.4154px;}
</style>
<g>
	<defs>
		<path id="SVGID_1_" d="M343.03,435.64c0.07-0.24,0.14-0.47,0.21-0.71C343.15,435.18,343.08,435.42,343.03,435.64 M108.66,158.26
			c0.11-0.17,0.22-0.34,0.33-0.51C108.88,157.92,108.77,158.09,108.66,158.26 M300.81,474.96c1.75-13.71,1.51-27.4-0.71-41.03
			c-1.04-6.38-2.27-12.75-3.95-18.99c-1.05-3.9,0.3-8.06,3.47-10.6c3.19-2.56,6-5.58,9.14-8.2c3.24-2.7,4.54-2.21,5.65,1.77
			c2.89,10.36,2.93,20.91,2.15,31.52c-1.22,16.63-6.9,32.08-12.9,47.44c-0.2,0.5-0.66,0.9-1.08,1.45
			C300.43,477.59,300.66,476.21,300.81,474.96 M147.04,28.73c-5.46,7.72-9.45,16.32-13.84,24.67c-4.29,8.14-5.67,17.09-6.56,26.11
			c-1.17,11.88-1.34,23.7,1.27,35.48c2.57,11.56,6.12,21.32,11.7,31.76c0.2,0.37,1.11,1.86,1.4,2.25c1.27,2.29,5.35,8.43,5.35,8.43
			c2.6,3.58,5.03,7.13,7.68,10.51c6.22,7.97,27.12,31.19,54.4,52.12c44.07,33.82,62.45,39.09,102.52,76.39
			c9.05,8.61,17.01,17.93,23.48,28.52c1.17,1.91,2.22,13.27,0.25,15.12c-2.85,2.65-5.64,5.37-8.56,7.94
			c-2.69,2.36-3.41,2.22-5.31-0.79c-0.84-1.33-1.5-2.78-2.34-4.12c-2.68-4.25-5.05-8.75-8.17-12.66
			c-12.17-15.29-27.07-27.47-44.46-36.59c-11.26-6.5-10.08-4.08-15.22,4.13c-4.1,6.55-7.39,13.59-11.15,20.63
			c0.16,0.29-2.31,2.83-1,4.05c1.38,1.28,4.93,2.78,5.33,3c10.4,5.8,32.61,19.93,42.02,31.59c3.84,4.03,6.82,8.87,10.11,13.39
			c1.39,1.91,1.72,4.05-0.09,5.89c-4.13,4.21-8.27,8.43-12.6,12.43c-2.21,2.04-3.15,1.87-4.85-0.64c-7.32-10.87-17.21-19.3-26.84-28
			c-18.78-16.97-40.56-30.1-60.16-46.02c-9.85-8-20.19-15.43-29.81-23.68c-12.06-10.35-22.64-22.19-32.67-34.44
			c-12.44-15.2-21.82-32.09-26.52-51.22c-3.13-12.74-4.7-25.08,1.08-38.08c0.19-0.51,2.02-3.78,5.21-8.64
			c-5.61,8.53-15.97,23.9-19.99,32.67c-5.19,11.31-7.95,23.37-6.77,35.94c3.7,31.1,19.52,49.44,20.88,51.19
			c9.13,11.7,19.67,25.89,46.61,47.69c5.68,4.87,11.59,9.49,17.36,14.27c0.6,0.5,0.88,1.38,1.31,2.09
			c-0.28,0.25-0.55,0.51-0.83,0.76c-5.55-3.96-11.1-7.92-16.65-11.88c0.82,1.54,1.94,2.79,3.25,3.79
			c9.09,6.87,18.06,13.91,27.37,20.47c17.58,12.38,35.45,24.39,51.76,38.4c5.77,4.96,11,10.57,16.21,16.14
			c3.19,3.4,2.99,4.46-0.62,7.35c-8.43,6.77-15.64,14.17-24.26,20.71c-31.06,23.41-20.13,16.31-56.87,37.81
			c-6.39,3.36-16.32,6.44-22.55,8.91c-12.82,4.1-24.93,5.97-37.54,6.27c-13.95-1-20.18-3.78-31.19-10.72
			c-17.15-11.13-22.8-20.43-25.29-24.08c-15.42-22.65-16.21-49.91-16.69-60.03c-0.78-16.83,2.38-31.81,4.03-38.19
			c0.28-1.07,0.48-2.15,0.64-3.24c0.18-1.25,0.85-3.62,3.39-8.35c-1.51,2.59-4.58,8.58-4.9,9.15c-0.57,0.99-1.13,2-1.6,3.04
			c-5.22,11.65-8.02,23.86-8.79,36.56c-0.83,13.53-1.2,24.99,1.1,39.77c3.42,18.07,12.68,34.88,24.85,48.92
			c10.05,11.6,22.01,20.79,36.67,26.09c19.73,7.13,39.57,6.65,59.3,0.04c19.48-6.52,37.55-15.87,54.58-27.25
			c19.01-12.71,37.01-26.66,54.04-41.85c1.83-1.63,3.71-3.21,5.68-4.67c2.37-1.75,3.44-1.44,4.47,1.36
			c2.62,4.73,5.07,9.27,6.73,14.08c5.87,19.64,12.35,27.61,4.77,57.79c-0.52,2.07-1.35,4.05-2.39,5.92
			c-1.07,1.94-2.9,5.12-6.23,10.93c7.2-9.52,8.33-10.43,9.38-11.64c11.82-13.72,19.43-23.67,26.51-38.41
			c6.84-14.23,12.58-30.76,17.6-47.07c3.26-13.12,5.21-25.75,5.05-38.94c-0.04-3.86,0.37-7.72,0.46-11.59
			c0.06-2.62,1-4.62,3.26-6.15c3.71-2.51,7.24-5.27,10.93-7.8c3.08-2.11,4.36-1.6,4.66,2.18c0.68,8.55,1.07,17.13,1.56,25.7
			c0.07,1.18,0.01,2.36,0.01,4.49c1.64-4.53,0.87-8.73,4.04-12.8c0.66,6.85,0.24,12.64-1.04,18.37c-1.24,5.59-2.42,11.21-4.07,16.68
			c-1.6,5.35-3.98,10.38-5.63,15.78c1.7-4.93,9.92-17.18,13.15-24.97c7.61-18.33,11.26-37.57,12.29-57.3
			c0.15-2.84,0.98-4.93,3.71-6.2c2.22-1.04,4.33-2.32,6.51-3.45c3.47-1.8,6.95-3.56,10.43-5.34c4.15-2.13,5.88-5.8,5.2-12.34
			c-0.81-7.7,1.29-15.3,5.64-21.74c0.75-1.11,0.47-1.68,0.47-3.71c-2.81,1.12-5.26,1.88-7.51,3.02
			c-8.37,4.26-16.68,8.65-25.02,12.97c-3.8,1.97-4.32,1.84-6.32-2.03c-1.77-3.44-3.22-7.06-5.08-10.45
			c-2.68-4.9-5.19-9.96-8.49-14.44c-11.08-15.01-24.56-27.83-38.7-39.98c-24.75-21.27-51.51-39.99-77.37-59.87
			c-14.41-11.08-28.77-22.24-41.6-35.18c-12.03-12.13-22.68-25.3-31.21-40.06C145.1,89.19,138.02,64.3,144.09,36.5
			c0.78-3.59,0.93-4.64,5.9-11.99C149.29,25.41,147.97,27.41,147.04,28.73"/>
	</defs>
	
		<linearGradient id="SVGID_00000065038373318253946300000000788120784155859853_" gradientUnits="userSpaceOnUse" x1="26.3077" y1="275.3102" x2="400.6935" y2="275.3102">
		<stop  offset="0" style="stop-color:#81204A"/>
		<stop  offset="0.318" style="stop-color:#EF4548"/>
		<stop  offset="0.7466" style="stop-color:#F36E36"/>
		<stop  offset="1" style="stop-color:#F99F2C"/>
	</linearGradient>
	<use xlink:href="#SVGID_1_"  style="overflow:visible;fill:url(#SVGID_00000065038373318253946300000000788120784155859853_);"/>
	<clipPath id="SVGID_00000067937295743612019160000012521523221253445533_">
		<use xlink:href="#SVGID_1_"  style="overflow:visible;"/>
	</clipPath>
	
		<linearGradient id="SVGID_00000114784502337476491970000011275538299768609465_" gradientUnits="userSpaceOnUse" x1="25.7482" y1="275.3102" x2="400.9193" y2="275.3102">
		<stop  offset="0" style="stop-color:#81204A"/>
		<stop  offset="0.318" style="stop-color:#EF4548"/>
		<stop  offset="0.7466" style="stop-color:#F36E36"/>
		<stop  offset="1" style="stop-color:#F99F2C"/>
	</linearGradient>
	
		<rect x="25.75" y="24.5" style="clip-path:url(#SVGID_00000067937295743612019160000012521523221253445533_);fill:url(#SVGID_00000114784502337476491970000011275538299768609465_);stroke:#000000;stroke-miterlimit:10;" width="375.17" height="501.62"/>
	<use xlink:href="#SVGID_1_"  style="overflow:visible;fill:none;stroke:#000000;stroke-miterlimit:10;"/>
</g>
<text transform="matrix(0.6432 0 0 1 435.6436 468.7148)" class="st1 st2 st3">Ayat Tech Solution</text>
</svg>
